<?xml version="1.0" encoding="UTF-8"?>
<svg id="a" data-name="Layer 1" xmlns="http://www.w3.org/2000/svg" viewBox="0 0 81.622 28.683">
  <defs>
    <style>
      .b {
        fill: #fff;
      }
    </style>
  </defs>
  <path class="b" d="M33.704,15.951l3.453,4.713h-3.363l-2.815-4.126h-.052v4.126h-2.707V7.984h2.707v7.57h.052l2.746-3.487h3.294l-3.315,3.884ZM8.227,7.984h-2.867v12.68h7.793v-2.572h-4.926V7.984ZM23.74,11.825c-1.397,0-2.311.904-2.573,1.433h-.034v-1.191h-2.603v8.597h2.707v-4.661c0-1.243.788-1.847,1.591-1.847.76,0,1.349.427,1.349,1.812v4.695h2.707v-5.317c0-2.626-1.632-3.522-3.143-3.522ZM14.374,20.657h2.707v-8.597h-2.707v8.597ZM15.728,7.762c-.862,0-1.561.656-1.561,1.554s.699,1.553,1.561,1.553,1.561-.656,1.561-1.553-.699-1.554-1.561-1.554ZM76.261,6.651v15.343c0,.734-.595,1.329-1.329,1.329h-15.343c-.734,0-1.329-.595-1.329-1.329V6.651c0-.734.595-1.329,1.329-1.329h15.343c.734,0,1.329.595,1.329,1.329ZM63.626,12.06h-2.706v8.597h2.706v-8.597ZM63.833,9.316c0-.897-.698-1.554-1.56-1.554s-1.56.656-1.56,1.554.699,1.553,1.56,1.553,1.56-.656,1.56-1.553ZM73.602,15.347c0-2.626-1.632-3.522-3.142-3.522-1.396,0-2.31.903-2.572,1.433h-.034v-1.191h-2.602v8.597h2.706v-4.661c0-1.243.787-1.847,1.59-1.847.76,0,1.349.427,1.349,1.812v4.696h2.706v-5.317ZM45.448,16.469c0,.291-.006.57-.017.673h-6.233s0,.099.047.264c.197.703.948,1.359,2.087,1.359,1.033,0,1.585-.474,1.905-.866l1.887,1.212c-.703.962-1.99,1.83-3.863,1.83-2.488,0-4.684-1.555-4.684-4.54,0-2.968,2.208-4.609,4.599-4.609s4.274,1.641,4.274,4.678ZM42.846,15.381c0-.913-.564-1.64-1.743-1.64-1.118,0-1.845.727-1.906,1.64h3.649ZM52.895,7.984h2.707v12.68h-2.482v-1.122h-.035c-.328.573-1.255,1.364-2.815,1.364-1.89,0-4.092-1.416-4.092-4.575,0-2.821,1.911-4.506,4.058-4.506,1.25,0,2.146.612,2.625,1.157h.034v-4.998ZM53.079,16.348c0-1.359-1.04-2.21-2.135-2.21-1.138,0-2.1.82-2.1,2.192,0,1.429,1.005,2.227,2.1,2.227,1.074,0,2.135-.87,2.135-2.21Z"/>
</svg>