<svg height="66.672455" viewBox="0 0 312.27106 66.672455" width="312.27106" xmlns="http://www.w3.org/2000/svg" xmlns:xlink="http://www.w3.org/1999/xlink"><clipPath id="a"><path d="m0 560h960v-560h-960z"/></clipPath><g clip-path="url(#a)" fill="#fff" transform="matrix(1.3333333 0 0 -1.3333333 -483.21452 407.61594)"><path d="m0 0-7.169-11.469c-9.63-.502-27.631-10.05-32.185-12.473l20.554 21.072.559.366c.368-.032.465-.062.871-.016 1.779.207 3.129 1.158 3.017 2.122-.113.963-1.646 1.578-3.423 1.37-1.778-.207-3.129-1.157-3.016-2.12.033-.284.188-.537.436-.747l-.264-.333.002.002-18.514-19.89-1.137-1.182 11.067 21.459 17.889 14.024c-4.308 2.267-9.319 3.305-14.519 2.7-13.714-1.599-23.536-14.012-21.939-27.727 1.599-13.714 14.012-23.536 27.727-21.937 13.715 1.598 23.536 14.011 21.938 27.726-.291 2.495-.944 4.86-1.894 7.053" transform="translate(594.5498 290.6572)"/><path d="m0 0h-.864c-2.064 0-3.744-.336-4.992-1.057-1.584-.912-2.449-2.543-2.449-5.183 0-3.168 1.009-4.465 2.784-4.465 1.057 0 2.161.432 3.121 1.103 1.344.961 2.4 2.354 2.4 3.457zm.336-7.584c-.96-1.873-3.168-3.937-6.72-3.937-3.073 0-6.481 1.392-6.481 5.376 0 5.184 6.576 6.866 12.385 6.866h.48v5.039c0 2.832-.768 4.368-3.936 4.368-2.928 0-4.513-1.103-4.513-3.647 0-1.585.673-2.929 2.257-2.593v-.384s-.865-.288-1.872-.288c-2.161 0-3.649 1.201-3.649 3.12 0 2.641 2.736 4.416 7.777 4.416 5.809 0 8.161-2.399 8.161-6.576v-12.53c0-1.39.288-2.16 1.296-2.16 1.632 0 2.256 1.584 2.256 3.313h.72c0-2.879-1.584-4.32-3.84-4.32-2.593 0-4.081 1.488-4.225 3.937z" transform="translate(375.2759 277.5176)"/><path d="m0 0h3.36v20.162h-3.36v.719h3.36v4.321c0 5.424 3.12 9.169 8.737 9.169 3.552 0 6.433-1.728 6.433-4.176 0-1.681-1.248-3.121-3.601-3.121-.528 0-1.2.096-1.92.288v.385c1.872-.385 2.449 1.584 2.449 2.736 0 1.775-1.249 3.264-3.361 3.264-3.264 0-4.512-2.113-4.512-6.673v-6.193h5.568v-.719h-5.568v-20.162h3.84v-.721h-11.425z" transform="translate(380.0747 267.0527)"/><path d="m0 0h-3.216v.72h1.536c3.264 0 5.184 4.753 5.184 7.633h.721v-7.633h5.616v-.72h-5.616v-16.177c0-2.641.48-3.985 2.4-3.985 1.152 0 3.024.481 3.024 3.504h.72c0-2.111-.96-4.56-4.8-4.56-4.033 0-5.569 2.545-5.569 6.24z" transform="translate(393.0347 287.2144)"/><path d="m0 0v1.92c0 4.512-.912 7.296-4.32 7.296-3.601 0-5.041-3.168-5.185-9.216zm-9.553-1.439c0-8.163 1.92-10.274 5.713-10.274 3.456 0 6.768 2.256 6.768 5.809h.768c0-2.785-1.824-4.946-4.512-5.953-1.057-.383-2.017-.577-3.456-.577-5.905 0-9.746 3.217-9.746 11.09 0 8.161 3.937 11.184 9.698 11.184 5.424 0 8.496-2.687 8.496-8.64v-1.921h-13.729z" transform="translate(415.1157 278.4297)"/><path d="m0 0h3.36v20.162h-3.36v.719h7.489v-5.088h.096c.864 2.497 2.784 5.424 6.192 5.424 2.544 0 4.561-1.679 4.561-4.368 0-2.351-1.488-3.792-3.409-3.792-.528 0-1.008 0-1.632.288v.384c1.392-.24 1.632 1.488 1.632 2.832 0 2.4-.768 3.648-2.208 3.648-1.344 0-2.592-1.152-3.504-2.639-1.056-1.729-1.632-3.841-1.632-5.329v-12.241h3.84v-.721h-11.425z" transform="translate(417.6099 267.0527)"/><path d="m0 0h-2.592v.72h10.321v-.72h-3.312l6.048-15.265 5.905 15.985h.719l6.865-15.985 4.128 12.336c.673 1.969.192 2.929-1.92 2.929h-.96v.72h7.633v-.72h-.72c-1.249 0-2.497-.816-2.976-2.208l-6.337-18.866h-.72l-7.009 16.225-5.952-16.225h-.72z" transform="translate(433.9297 287.2144)"/><path d="m0 0c0 7.296-1.345 10.369-5.713 10.369-4.32 0-5.761-3.168-5.761-10.656 0-7.154 1.393-10.369 5.761-10.369s5.713 3.312 5.713 10.656m-15.985-.287c0 6.912 3.168 11.28 10.272 11.28 7.152 0 10.225-4.176 10.225-10.993 0-7.201-3.888-11.281-10.225-11.281-6.913 0-10.272 4.32-10.272 10.994" transform="translate(479.0518 277.2773)"/><path d="m0 0h3.36v20.162h-3.36v.719h7.488v-5.088h.096c.864 2.497 2.784 5.424 6.192 5.424 2.545 0 4.561-1.679 4.561-4.368 0-2.351-1.488-3.792-3.408-3.792-.529 0-1.008 0-1.632.288v.384c1.391-.24 1.632 1.488 1.632 2.832 0 2.4-.768 3.648-2.208 3.648-1.344 0-2.592-1.152-3.504-2.639-1.057-1.729-1.633-3.841-1.633-5.329v-12.241h3.841v-.721h-11.425z" transform="translate(481.8809 267.0527)"/><path d="m0 0c0 3.505-1.775 7.153-5.904 7.153-3.888 0-5.473-3.264-5.473-10.753 0-7.297 1.633-9.889 5.089-9.889 3.889 0 6.288 3.84 6.288 7.92zm.097-9.36h-.097c-1.008-2.881-3.168-4.945-7.057-4.945-5.904 0-8.832 4.129-8.832 10.801 0 7.249 3.792 11.473 9.553 11.473 3.456 0 5.376-1.872 6.24-3.888h.096v15.697h-3.36v.72h7.585v-33.747h3.36v-.72h-7.488z" transform="translate(513.6104 280.3013)"/><path d="m0 0c.433 1.201.528 2.928.528 4.465v3.553h.72v-1.729c0-2.496 2.784-5.568 7.249-5.568 3.024 0 5.568 1.392 5.568 4.08 0 5.568-13.729 2.064-13.729 11.04 0 4.946 4.32 6.433 7.585 6.433 2.256 0 4.177-.768 5.425-2.064 1.103.24 1.487 1.344 1.824 2.064h.624c-.624-1.199-.769-2.928-.769-4.464v-2.448h-.719v.767c0 2.449-1.92 5.425-6.433 5.425-3.072 0-5.665-1.248-5.665-3.984 0-5.568 13.825-2.16 13.825-10.8 0-3.842-2.88-6.77-7.584-6.77-2.64 0-4.801 1.008-6.144 2.354-.817-.241-1.393-1.489-1.681-2.354z" transform="translate(519.2725 265.9961)"/></g></svg>