<?xml version="1.0" encoding="UTF-8"?>
<svg id="a" data-name="bfd7ed38-e2c2-4ce4-aa7c-70bac4bc4918" xmlns="http://www.w3.org/2000/svg" viewBox="0 0 808 588">
  <defs>
    <style>
      .b {
        opacity: .1;
      }

      .b, .c {
        isolation: isolate;
      }

      .c {
        opacity: .2;
      }

      .d {
        fill: #0f172a;
      }

      .e {
        fill: #ccc;
      }

      .f {
        fill: #ffb8b8;
      }

      .g {
        fill: #fff;
      }

      .h {
        fill: #f2f2f2;
      }

      .i {
        fill: #9897c0;
      }

      .j {
        fill: #b3afef;
      }
    </style>
  </defs>
  <path class="e" d="M705.397,200.076c-29.238-21.858-75.032-42.529-125.639-56.714-46.078-12.915-91.021-19.151-126.56-17.558l-.185-4.133c35.962-1.611,81.372,4.677,127.862,17.708,51.079,14.317,97.369,35.232,127,57.384l-2.477,3.313Z"/>
  <path class="i" d="M702.362,216.913c.026,19.366-4.034,38.519-11.914,56.209-.658,1.481-1.343,2.948-2.056,4.402-33.485,68.585-116.23,97.039-184.815,63.553-47.454-23.169-77.556-71.356-77.564-124.164,0-3.198.109-6.371.327-9.519.103-1.601.237-3.192.401-4.774,7.898-75.906,75.834-131.037,151.74-123.139,70.396,7.325,123.878,66.656,123.881,137.432h0Z"/>
  <path class="b" d="M690.447,273.121c-.658,1.481-1.343,2.948-2.056,4.402-4.038.439-8.288.757-12.75.956-3.694.165-7.496.248-11.381.248-33.931,0-74.767-6.263-116.484-17.954-46.491-13.031-88.552-31.259-118.437-51.327-1.018-.683-2.017-1.367-2.999-2.052.103-1.601.237-3.192.401-4.774,1.584,1.129,3.219,2.26,4.902,3.392,29.534,19.828,71.172,37.861,117.25,50.777,41.353,11.592,81.804,17.801,115.347,17.801,3.835,0,7.573-.081,11.215-.244,5.304-.24,10.301-.648,14.992-1.225Z"/>
  <path class="e" d="M664.261,275.418c-33.93,0-74.769-6.263-116.484-17.955-46.491-13.031-88.553-31.259-118.439-51.327-30.509-20.487-44.816-40.673-40.284-56.841,4.531-16.168,27.246-25.978,63.958-27.624l.185,4.133c-17.144.768-31.116,3.316-41.528,7.574-10.386,4.247-16.655,9.978-18.633,17.034-1.978,7.056.4,15.21,7.065,24.236,6.682,9.048,17.294,18.487,31.542,28.054,29.53,19.829,71.17,37.863,117.249,50.778,41.354,11.591,81.802,17.802,115.347,17.803,3.833,0,7.57-.081,11.213-.244,17.145-.768,31.116-3.316,41.528-7.574,10.386-4.247,16.655-9.978,18.633-17.033,3.551-12.669-7.18-29.132-30.217-46.354l2.477-3.313c11.855,8.863,20.63,17.598,26.082,25.964,5.845,8.969,7.743,17.32,5.641,24.819-4.532,16.168-27.246,25.978-63.958,27.624-3.694.166-7.494.248-11.378.248Z"/>
  <circle class="h" cx="567.842" cy="52.235" r="1.583"/>
  <circle class="g" cx="357.785" cy="119.801" r="2.724"/>
  <circle class="e" cx="351.98" cy="226.413" r="5.381"/>
  <circle class="e" cx="674.982" cy="61.735" r="3.586"/>
  <circle class="g" cx="802.177" cy="210.579" r="5.823"/>
  <circle class="e" cx="756.646" cy="117.58" r="2.498"/>
  <circle class="e" cx="453.314" cy="85.485" r="3.897"/>
  <circle class="e" cx="747.902" cy="198.772" r="2.498"/>
  <circle class="e" cx="364.647" cy="302.413" r="3.109"/>
  <circle class="g" cx="427.452" cy="345.691" r="3.367"/>
  <polygon class="e" points="525.34 6.645 518.695 6.645 518.695 0 515.13 0 515.13 6.645 508.482 6.645 508.482 10.213 515.13 10.213 515.13 16.858 518.695 16.858 518.695 10.213 525.34 10.213 525.34 6.645"/>
  <polygon class="e" points="679.482 366.201 675.308 366.201 675.308 362.029 673.07 362.029 673.07 366.201 668.898 366.201 668.898 368.44 673.07 368.44 673.07 372.612 675.308 372.612 675.308 368.44 679.482 368.44 679.482 366.201"/>
  <polygon class="e" points="775.786 344.844 772.667 344.844 772.667 341.725 770.992 341.725 770.992 344.844 767.873 344.844 767.873 346.519 770.992 346.519 770.992 349.638 772.667 349.638 772.667 346.519 775.786 346.519 775.786 344.844"/>
  <circle class="b" cx="566.259" cy="108.717" r="11.611"/>
  <circle class="b" cx="477.064" cy="193.69" r="11.611"/>
  <circle class="b" cx="605.315" cy="310.33" r="11.611"/>
  <circle class="b" cx="566.259" cy="211.635" r="11.611"/>
  <circle class="b" cx="482.87" cy="275.496" r="11.611"/>
  <circle class="b" cx="628.537" cy="149.357" r="11.611"/>
  <circle class="b" cx="667.065" cy="227.996" r="11.611"/>
  <circle class="g" cx="566.259" cy="160.968" r="15.306"/>
  <path class="e" d="M566.259,138.801c-11.951,0-21.639,9.688-21.639,21.639s21.639,51.195,21.639,51.195c0,0,21.639-39.244,21.639-51.195s-9.688-21.639-21.639-21.639ZM566.259,170.996c-5.538,0-10.028-4.49-10.028-10.028s4.49-10.028,10.028-10.028c5.538,0,10.028,4.49,10.028,10.028s-4.49,10.028-10.028,10.028h0Z"/>
  <circle class="g" cx="482.87" cy="226.413" r="15.306"/>
  <path class="e" d="M482.87,204.246c-11.951,0-21.639,9.688-21.639,21.639s21.639,51.195,21.639,51.195c0,0,21.639-39.244,21.639-51.195s-9.688-21.639-21.639-21.639ZM482.87,236.44c-5.538,0-10.028-4.49-10.028-10.028s4.49-10.028,10.028-10.028c5.538,0,10.028,4.49,10.028,10.028s-4.49,10.028-10.028,10.028h0Z"/>
  <circle class="g" cx="667.065" cy="178.912" r="15.306"/>
  <path class="e" d="M667.065,156.745c-11.951,0-21.639,9.688-21.639,21.639h0c0,11.951,21.639,51.195,21.639,51.195,0,0,21.639-39.244,21.639-51.195,0-11.951-9.688-21.639-21.639-21.639h0ZM667.065,188.94c-5.538,0-10.028-4.49-10.028-10.028s4.49-10.028,10.028-10.028c5.538,0,10.028,4.49,10.028,10.028s-4.49,10.028-10.028,10.028h0Z"/>
  <circle class="g" cx="566.259" cy="58.05" r="15.306"/>
  <path class="e" d="M566.259,35.884c-11.951,0-21.639,9.688-21.639,21.639,0,11.951,21.639,51.195,21.639,51.195,0,0,21.639-39.244,21.639-51.195s-9.688-21.639-21.639-21.639ZM566.259,68.078c-5.538,0-10.028-4.49-10.028-10.028s4.49-10.028,10.028-10.028c5.538,0,10.028,4.49,10.028,10.028s-4.49,10.028-10.028,10.028h0Z"/>
  <circle class="g" cx="605.315" cy="261.246" r="15.306"/>
  <path class="d" d="M605.315,239.079c-11.951,0-21.639,9.688-21.639,21.639s21.639,51.195,21.639,51.195c0,0,21.639-39.244,21.639-51.195s-9.688-21.639-21.639-21.639h0ZM605.315,271.274c-5.538,0-10.028-4.49-10.028-10.028s4.49-10.028,10.028-10.028c5.538,0,10.028,4.49,10.028,10.028s-4.49,10.028-10.028,10.028h0Z"/>
  <circle class="g" cx="477.064" cy="143.551" r="15.306"/>
  <path class="d" d="M477.064,121.384c-11.951,0-21.639,9.688-21.639,21.639s21.639,51.195,21.639,51.195c0,0,21.639-39.244,21.639-51.195s-9.688-21.639-21.639-21.639ZM477.064,153.579c-5.538,0-10.028-4.49-10.028-10.028s4.49-10.028,10.028-10.028c5.538,0,10.028,4.49,10.028,10.028s-4.49,10.028-10.028,10.028h0Z"/>
  <circle class="g" cx="628.537" cy="100.801" r="15.306"/>
  <path class="d" d="M628.537,78.634c-11.951,0-21.639,9.688-21.639,21.639s21.639,51.195,21.639,51.195c0,0,21.639-39.244,21.639-51.195s-9.688-21.639-21.639-21.639ZM628.537,110.829c-5.538,0-10.028-4.49-10.028-10.028s4.49-10.028,10.028-10.028c5.538,0,10.028,4.49,10.028,10.028s-4.49,10.028-10.028,10.028h0Z"/>
  <polygon class="f" points="188.862 571.299 201.044 569.916 201.509 522.272 183.53 524.313 188.862 571.299"/>
  <path class="d" d="M225.82,578.561l-38.285,4.344h0l-1.679-14.792h0l23.493-2.666c8.169-.927,15.543,4.944,16.47,13.113h0Z"/>
  <polygon class="f" points="63.582 570.538 75.842 570.537 81.674 523.249 63.58 523.25 63.582 570.538"/>
  <path class="d" d="M99.486,581.92l-38.531.002h0v-14.887h0,23.644c8.222-.001,14.887,6.663,14.888,14.885h0Z"/>
  <path class="d" d="M151.544,359.07l7,22.769,38,82.231,10,78-23,1-14-72-48-52-42,136-19-2s16-176,38-194c0,0,36-17,53,0Z"/>
  <circle class="f" cx="120.492" cy="236.262" r="24.561"/>
  <path class="g" d="M154.044,363.57s3-102-39-95-24.5,105.5-24.5,105.5c0,0,9,18,31-2s32.5-8.5,32.5-8.5Z"/>
  <polygon class="c" points="96.044 311.57 105.927 349.453 120.984 364.511 100.044 357.57 96.044 311.57"/>
  <path class="f" d="M154.354,406.708c-5.221-1.893-7.919-7.66-6.026-12.881.202-.557.452-1.094.749-1.607l-23.359-27.043,18.414-2.397,19.359,26.048c4.638,3.109,5.877,9.39,2.768,14.028-2.602,3.881-7.524,5.474-11.906,3.853h0Z"/>
  <path class="g" d="M125.914,289.345l2.63,51.724,31,40-13,10-42-42s-15-51-4-66c4.125-5.625,8.672-7.172,12.744-6.908,6.933.577,12.349,6.232,12.626,13.184Z"/>
  <path class="d" d="M117.571,262.07c.417-.374.452-1.014.078-1.431-.065-.072-.139-.134-.221-.185-6.707-4.153-8.776-12.957-4.623-19.663,1.443-2.33,3.525-4.195,5.999-5.374,7.221-3.443,17.006-.764,22.344-7.38,2.197-2.864,3.037-6.543,2.303-10.077-1.152-6.249-5.849-10.889-11.11-14.07-19.108-11.551-43.963-5.425-55.514,13.683-4.616,7.636-6.576,16.585-5.575,25.451.679,6.014,2.535,12.758-1.041,17.641-3.147,4.297-9.088,5.103-14.307,6.171-11.193,2.29-21.992,7.574-29.588,16.108s-11.648,20.508-9.358,31.701,11.478,21.03,22.771,22.765c9.192,1.412,18.683-2.491,25.433-8.888s11.016-15.035,13.708-23.937c3.194-10.565,4.454-21.95,10.221-31.362,5.643-9.21,17.804-15.812,27.335-11.015.374.195.829.141,1.147-.137h0Z"/>
  <path class="b" d="M308,588H1c-.552,0-1-.895-1-2s.448-2,1-2h307c.552,0,1,.895,1,2s-.448,2-1,2Z"/>
  <path class="j" d="M308,585.165H1c-.552,0-1-.895-1-2s.448-2,1-2h307c.552,0,1,.895,1,2s-.448,2-1,2Z"/>
</svg>